<svg xmlns="http://www.w3.org/2000/svg" width="286" height="43.5" viewBox="0 0 286 43.5">
  <defs>
    <style>
      .cls-1 {
        fill: #fff;
        fill-rule: evenodd;
      }
    </style>
  </defs>
  <path id="Group_Chat" data-name="Group Chat" class="cls-1" d="M247.779,60.664h7.481a7.971,7.971,0,0,1-2.891,4.8,8.652,8.652,0,0,1-5.469,1.758,9.56,9.56,0,0,1-7.363-3.066,11.2,11.2,0,0,1-2.832-7.91,12.478,12.478,0,0,1,3.027-8.652,10.047,10.047,0,0,1,7.832-3.34A11.462,11.462,0,0,1,257.1,49.1l2.91-2.969a15.24,15.24,0,0,0-12.363-6.074,14.568,14.568,0,0,0-10.215,3.77,15.1,15.1,0,0,0-3.828,5.547,18.287,18.287,0,0,0-1.387,6.973,15,15,0,0,0,4.062,10.82,13.718,13.718,0,0,0,10.352,4.238,12.358,12.358,0,0,0,11.25-6.191,19.188,19.188,0,0,0,2.461-8.418h-12.07Zm25.989-8.242L271.5,70.82h4.316l1.133-9.18a17.389,17.389,0,0,1,.479-2.617,6.254,6.254,0,0,1,.761-1.787,2.92,2.92,0,0,1,1.084-1.016,3.113,3.113,0,0,1,1.446-.322,3.691,3.691,0,0,1,2.383,1.016l2.753-3.555a5.22,5.22,0,0,0-3.554-1.426A6.477,6.477,0,0,0,277.889,54l0.195-1.582h-4.316Zm38.566,2.09a9.76,9.76,0,0,0-7.129-2.7,10.29,10.29,0,0,0-7.422,2.852,9.445,9.445,0,0,0-2.949,7.109,9.168,9.168,0,0,0,2.852,6.914,10.116,10.116,0,0,0,7.3,2.715,9.835,9.835,0,0,0,7.188-2.871,9.533,9.533,0,0,0,2.929-7.09,9.165,9.165,0,0,0-2.773-6.934h0Zm-3.242,11.445a5.332,5.332,0,0,1-4.18,1.856,5.434,5.434,0,0,1-4.141-1.7,6.064,6.064,0,0,1-1.6-4.395,6.307,6.307,0,0,1,1.7-4.512,5.692,5.692,0,0,1,4.3-1.777,5.36,5.36,0,0,1,4.043,1.6,5.677,5.677,0,0,1,1.543,4.2,6.78,6.78,0,0,1-1.66,4.726h0Zm31.574-13.535L339.318,63.34a6.114,6.114,0,0,1-1.172,3.359,3.54,3.54,0,0,1-2.734.957q-3.418,0-3.418-2.91,0-.332.039-0.83t0.117-1.162l1.27-10.332H329.1l-1.211,9.941q-0.1.781-.147,1.387T327.7,64.8a5.909,5.909,0,0,0,2.032,4.707,8.065,8.065,0,0,0,5.429,1.738,9.061,9.061,0,0,0,5.762-1.719,5.833,5.833,0,0,0,1.836-2.324,11.919,11.919,0,0,0,.508-1.7,21.7,21.7,0,0,0,.39-2.383l1.309-10.7h-4.3Zm18.332,0-3.555,28.926h4.317l1.621-13.164a10.093,10.093,0,0,0,2.988,2.4,7.831,7.831,0,0,0,3.457.664,9.08,9.08,0,0,0,6.895-2.949,10.258,10.258,0,0,0,2.793-7.3,8.989,8.989,0,0,0-2.442-6.465,8.1,8.1,0,0,0-6.113-2.559,8.948,8.948,0,0,0-5.879,2.383l0.234-1.934H359Zm12.52,13.359a5.342,5.342,0,0,1-4.141,1.875,5.108,5.108,0,0,1-3.828-1.523,5.305,5.305,0,0,1-1.485-3.926,6.7,6.7,0,0,1,1.758-4.707,5.7,5.7,0,0,1,4.375-1.914,4.594,4.594,0,0,1,3.594,1.582,5.756,5.756,0,0,1,1.406,4,6.752,6.752,0,0,1-1.679,4.609h0Zm53.949-25.723a14.035,14.035,0,0,0-10.742,4.609,16.436,16.436,0,0,0-4.258,11.6q0,6.855,4,10.977a13.992,13.992,0,0,0,10.566,4.16,22.393,22.393,0,0,0,7.754-1.543l0.645-5.293a11.8,11.8,0,0,1-7.618,2.656q-5.175,0-8.007-2.832-2.853-2.851-2.852-7.93a12.853,12.853,0,0,1,2.969-8.809,9.747,9.747,0,0,1,7.734-3.4,12.683,12.683,0,0,1,9.356,3.984l0.605-4.883a18.453,18.453,0,0,0-10.156-3.3h0Zm23.781-2.227L445.186,70.82H449.5l1.191-9.629q0.684-5.605,4.825-5.605,2.889,0,2.89,2.461a12.665,12.665,0,0,1-.117,1.621L456.924,70.82h4.316L462.588,59.9q0.1-.879.156-1.572t0.059-1.24a4.605,4.605,0,0,0-1.66-3.691,6.227,6.227,0,0,0-4.3-1.426,8.566,8.566,0,0,0-5.274,2.012l1.992-16.152h-4.316Zm42.023,14.59-0.292,2.422a9.386,9.386,0,0,0-2.872-2.227,7.926,7.926,0,0,0-3.359-.645,8.894,8.894,0,0,0-6.855,2.91,10.686,10.686,0,0,0-2.637,7.461,9.062,9.062,0,0,0,2.305,6.426,7.761,7.761,0,0,0,5.957,2.481,8.675,8.675,0,0,0,5.742-2.422l-0.254,1.992h4.316l2.266-18.4h-4.317ZM488.6,65.742a5.369,5.369,0,0,1-4.121,1.934,4.482,4.482,0,0,1-3.516-1.543,5.753,5.753,0,0,1-1.367-3.965,6.958,6.958,0,0,1,1.64-4.687,5.164,5.164,0,0,1,4.063-1.895,4.693,4.693,0,0,1,3.633,1.543,5.616,5.616,0,0,1,1.406,3.965,6.807,6.807,0,0,1-1.738,4.648h0Zm29.133-9.316,0.488-4h-3.985l1.055-8.535h-4.316l-1.055,8.535h-2.441l-0.489,4h2.442L507.65,70.82h4.317l1.777-14.394h3.985Z" transform="translate(-232.219 -37.844)"/>
</svg>
